<svg id="Layer_1" data-name="Layer 1" xmlns="http://www.w3.org/2000/svg" viewBox="0 0 12.37 14.94"><defs><style>.cls-1{fill:#f10000;}</style></defs><title>icon-sg-crest</title><path class="cls-1" d="M2.13,5A1.53,1.53,0,0,0,2.3,6.78s.12-.5,1.24-.5H4.89A1.71,1.71,0,0,0,6.51,3.81s.9.09,1.2-.47,0-.79-.47-.79H5c0,.41-.77.46-.77,0H2.94s-1,0-1,.81a1.14,1.14,0,0,1,.43-.15v.21A1.65,1.65,0,0,0,2,3.54c-.12.06-.3.24-.13.7s.24.62.24.62a1.13,1.13,0,0,1,.71-.24h.51c.92,0,.75.89-.17.89s-1-.49-1-.49ZM6.92,4.1a.79.79,0,0,0,.53-.18s2,1.58-1,4.76-.69,5.24-.69,5.24a1.54,1.54,0,0,0-.23,1.55,8.69,8.69,0,0,1-2.21-1.91C2,11.82,1.11,9.16,4.91,7.05c0,0,2.51-1.27,2-2.95ZM3.81,2.25a1.59,1.59,0,0,1,1.35-.72c.74,0,.91-.38.91-.38S6.4.53,8,.53A5,5,0,0,1,11.36,1.7,3.73,3.73,0,0,0,7,2.25ZM13,6.83c-.06-2.26-1.81-4.68-5.56-4.54,3.67-3.11,10,3.83,4.79,7.48A5,5,0,0,0,13,6.83ZM8,2.54a4.5,4.5,0,0,1,3.26,7.82l-3,1.44a2.89,2.89,0,0,1,1-2.71c1.44-1.46,2.82-4.19-1.14-6A.6.6,0,0,0,8,2.54ZM7.73,3.78A1.56,1.56,0,0,0,8,3.39c3.41,1.42,2.87,3.83.84,5.85A2.9,2.9,0,0,0,8,11.91a8.19,8.19,0,0,0-2,1.77s-2.2-1.87.85-5,.92-4.91.92-4.91Z" transform="translate(-1.81 -0.53)"/></svg>