<?xml version="1.0" encoding="utf-8"?>
<!-- Generator: Adobe Illustrator 24.0.3, SVG Export Plug-In . SVG Version: 6.00 Build 0)  -->
<svg version="1.1" id="Layer_1" xmlns="http://www.w3.org/2000/svg" xmlns:xlink="http://www.w3.org/1999/xlink" x="0px" y="0px"
	 width="268px" height="30px" viewBox="0 0 268 30" style="enable-background:new 0 0 268 30;" xml:space="preserve">
<style type="text/css">
	.st0{enable-background:new    ;}
	.st1{fill:#333333;}
	.st2{fill:#00817B;}
</style>
<g>
	<g class="st0">
		<g>
			<path class="st1" d="M133.78,7.01c-0.05,0.09-0.11,0.15-0.16,0.19c-0.06,0.04-0.13,0.06-0.21,0.06c-0.09,0-0.19-0.03-0.29-0.1
				c-0.1-0.07-0.23-0.14-0.37-0.22c-0.14-0.08-0.31-0.15-0.51-0.22c-0.19-0.07-0.42-0.1-0.69-0.1c-0.24,0-0.45,0.03-0.63,0.09
				c-0.18,0.06-0.33,0.14-0.45,0.24c-0.12,0.1-0.21,0.22-0.27,0.37c-0.06,0.14-0.09,0.3-0.09,0.47c0,0.22,0.06,0.4,0.18,0.54
				c0.12,0.15,0.28,0.27,0.48,0.37c0.2,0.1,0.43,0.19,0.68,0.27c0.26,0.08,0.52,0.17,0.79,0.26c0.27,0.09,0.53,0.2,0.79,0.32
				c0.26,0.12,0.48,0.27,0.68,0.46c0.2,0.19,0.36,0.41,0.48,0.68c0.12,0.27,0.18,0.59,0.18,0.98c0,0.42-0.07,0.81-0.21,1.17
				c-0.14,0.36-0.35,0.68-0.63,0.95c-0.27,0.27-0.61,0.48-1.01,0.64c-0.4,0.16-0.85,0.23-1.36,0.23c-0.29,0-0.58-0.03-0.87-0.09
				c-0.29-0.06-0.56-0.14-0.82-0.25c-0.26-0.11-0.51-0.23-0.74-0.38c-0.23-0.15-0.43-0.32-0.61-0.5l0.5-0.82
				c0.04-0.06,0.1-0.11,0.17-0.15c0.07-0.04,0.14-0.06,0.22-0.06c0.11,0,0.22,0.04,0.35,0.13c0.12,0.09,0.27,0.18,0.44,0.29
				c0.17,0.11,0.37,0.2,0.6,0.29c0.23,0.09,0.5,0.13,0.82,0.13c0.49,0,0.87-0.12,1.14-0.35c0.27-0.23,0.4-0.57,0.4-1
				c0-0.24-0.06-0.44-0.18-0.59c-0.12-0.15-0.28-0.28-0.48-0.39c-0.2-0.1-0.43-0.19-0.68-0.27c-0.26-0.07-0.52-0.15-0.78-0.24
				s-0.52-0.19-0.78-0.31c-0.26-0.12-0.48-0.27-0.68-0.47c-0.2-0.19-0.36-0.43-0.48-0.72c-0.12-0.29-0.18-0.64-0.18-1.06
				c0-0.34,0.07-0.66,0.2-0.98c0.13-0.32,0.33-0.6,0.58-0.85c0.26-0.25,0.57-0.45,0.95-0.59c0.37-0.15,0.8-0.22,1.29-0.22
				c0.55,0,1.05,0.09,1.51,0.26c0.46,0.17,0.85,0.41,1.18,0.72L133.78,7.01z"/>
		</g>
		<g>
			<path class="st1" d="M137.79,14.57h-1.72V5.33h1.72V14.57z"/>
		</g>
		<g>
			<path class="st1" d="M141.13,5.34c0.05,0.01,0.1,0.02,0.14,0.04c0.04,0.02,0.08,0.05,0.12,0.08c0.04,0.04,0.08,0.08,0.13,0.14
				l4.84,6.18c-0.01-0.15-0.02-0.3-0.03-0.44c-0.01-0.14-0.01-0.28-0.01-0.4V5.33h1.51v9.24h-0.88c-0.14,0-0.25-0.02-0.34-0.07
				s-0.18-0.12-0.27-0.23l-4.82-6.15c0.01,0.14,0.02,0.27,0.03,0.41s0.01,0.26,0.01,0.37v5.67h-1.51V5.33h0.9
				C141.02,5.33,141.08,5.33,141.13,5.34z"/>
		</g>
		<g>
			<path class="st1" d="M156.2,14.43c-0.53,0.16-1.1,0.24-1.7,0.24c-0.75,0-1.44-0.12-2.05-0.35c-0.61-0.23-1.13-0.56-1.57-0.98
				c-0.43-0.42-0.77-0.92-1-1.5c-0.23-0.58-0.35-1.21-0.35-1.9c0-0.69,0.11-1.33,0.34-1.91c0.23-0.58,0.55-1.08,0.96-1.49
				c0.42-0.42,0.92-0.74,1.51-0.97c0.59-0.23,1.26-0.34,1.99-0.34c0.37,0,0.73,0.03,1.05,0.09c0.33,0.06,0.63,0.14,0.91,0.25
				c0.28,0.1,0.53,0.23,0.76,0.38c0.23,0.15,0.44,0.31,0.63,0.49l-0.49,0.78c-0.08,0.12-0.18,0.2-0.3,0.23
				c-0.12,0.03-0.26,0-0.4-0.09c-0.14-0.08-0.28-0.16-0.42-0.24c-0.14-0.08-0.3-0.15-0.47-0.21c-0.17-0.06-0.37-0.11-0.58-0.15
				c-0.22-0.04-0.46-0.06-0.74-0.06c-0.46,0-0.87,0.08-1.24,0.23c-0.37,0.15-0.68,0.37-0.94,0.66c-0.26,0.29-0.46,0.63-0.6,1.03
				c-0.14,0.4-0.21,0.85-0.21,1.34c0,0.53,0.08,1,0.23,1.42c0.15,0.42,0.36,0.77,0.64,1.05c0.27,0.29,0.61,0.51,0.99,0.66
				c0.39,0.15,0.82,0.23,1.3,0.23c0.34,0,0.65-0.04,0.91-0.11c0.27-0.07,0.53-0.17,0.79-0.29v-1.68h-1.16
				c-0.11,0-0.2-0.03-0.26-0.09c-0.06-0.06-0.09-0.14-0.09-0.23V9.93h3.07v3.74C157.23,14.02,156.73,14.27,156.2,14.43z"/>
		</g>
		<g>
			<path class="st1" d="M167.34,14.57h-1.33c-0.15,0-0.27-0.04-0.36-0.11c-0.09-0.07-0.16-0.17-0.21-0.28l-0.69-1.88h-3.83
				l-0.69,1.88c-0.03,0.1-0.1,0.19-0.2,0.27c-0.1,0.08-0.22,0.12-0.36,0.12h-1.34l3.63-9.24h1.75L167.34,14.57z M161.36,11.08h2.94
				L163.18,8c-0.06-0.14-0.11-0.3-0.17-0.48c-0.06-0.19-0.12-0.39-0.18-0.6c-0.06,0.22-0.12,0.42-0.18,0.61
				c-0.06,0.19-0.11,0.35-0.17,0.49L161.36,11.08z"/>
		</g>
		<g>
			<path class="st1" d="M170.21,11.31v3.25h-1.72V5.33h3c0.62,0,1.15,0.07,1.6,0.22c0.45,0.14,0.82,0.35,1.12,0.61
				c0.29,0.26,0.51,0.57,0.65,0.93c0.14,0.36,0.21,0.76,0.21,1.19c0,0.45-0.07,0.86-0.22,1.23c-0.15,0.37-0.37,0.69-0.67,0.96
				c-0.3,0.27-0.67,0.48-1.12,0.63c-0.45,0.15-0.97,0.22-1.57,0.22H170.21z M170.21,9.97h1.28c0.31,0,0.59-0.04,0.82-0.12
				c0.23-0.08,0.43-0.19,0.58-0.34c0.16-0.15,0.27-0.33,0.35-0.54c0.08-0.21,0.12-0.45,0.12-0.71c0-0.25-0.04-0.47-0.12-0.67
				c-0.08-0.2-0.19-0.37-0.34-0.51c-0.15-0.14-0.35-0.25-0.58-0.32c-0.23-0.07-0.51-0.11-0.83-0.11h-1.28V9.97z"/>
		</g>
		<g>
			<path class="st1" d="M185.4,9.95c0,0.68-0.11,1.3-0.34,1.88c-0.22,0.58-0.54,1.08-0.95,1.5c-0.41,0.42-0.9,0.75-1.48,0.99
				c-0.58,0.24-1.21,0.35-1.92,0.35c-0.7,0-1.34-0.12-1.91-0.35c-0.58-0.24-1.07-0.57-1.48-0.99c-0.41-0.42-0.73-0.92-0.96-1.5
				c-0.23-0.58-0.34-1.2-0.34-1.88c0-0.68,0.11-1.3,0.34-1.88c0.23-0.58,0.54-1.08,0.96-1.5c0.41-0.42,0.9-0.75,1.48-0.99
				c0.57-0.24,1.21-0.35,1.91-0.35c0.47,0,0.91,0.05,1.32,0.16c0.41,0.11,0.79,0.26,1.14,0.46c0.34,0.2,0.65,0.44,0.93,0.72
				c0.27,0.28,0.51,0.6,0.7,0.95c0.19,0.35,0.34,0.73,0.44,1.14S185.4,9.5,185.4,9.95z M183.64,9.95c0-0.51-0.07-0.96-0.2-1.36
				c-0.14-0.4-0.33-0.74-0.58-1.03c-0.25-0.28-0.56-0.5-0.92-0.65c-0.36-0.15-0.77-0.22-1.22-0.22c-0.45,0-0.86,0.07-1.22,0.22
				c-0.36,0.15-0.67,0.36-0.92,0.65c-0.25,0.28-0.45,0.62-0.58,1.03c-0.14,0.4-0.2,0.86-0.2,1.36c0,0.51,0.07,0.96,0.2,1.36
				c0.14,0.4,0.33,0.74,0.58,1.02s0.56,0.49,0.92,0.64c0.36,0.15,0.77,0.22,1.22,0.22c0.45,0,0.86-0.07,1.22-0.22
				c0.36-0.15,0.67-0.36,0.92-0.64s0.45-0.62,0.58-1.02C183.58,10.91,183.64,10.45,183.64,9.95z"/>
		</g>
		<g>
			<path class="st1" d="M188.83,10.96v3.61h-1.72V5.33h2.82c0.63,0,1.16,0.07,1.61,0.19c0.45,0.13,0.82,0.31,1.11,0.55
				c0.29,0.23,0.5,0.51,0.64,0.84c0.14,0.33,0.2,0.68,0.2,1.08c0,0.31-0.05,0.6-0.14,0.88c-0.09,0.28-0.22,0.53-0.4,0.75
				s-0.39,0.42-0.64,0.59c-0.25,0.17-0.54,0.31-0.87,0.41c0.22,0.12,0.4,0.3,0.56,0.53l2.31,3.41h-1.55c-0.29,0-0.51-0.12-0.64-0.35
				l-1.94-2.96c-0.07-0.11-0.15-0.19-0.24-0.24c-0.09-0.05-0.22-0.07-0.39-0.07H188.83z M188.83,9.72h1.07
				c0.32,0,0.61-0.04,0.85-0.12s0.44-0.19,0.59-0.34c0.16-0.14,0.27-0.31,0.35-0.51s0.11-0.41,0.11-0.65c0-0.47-0.15-0.83-0.46-1.08
				c-0.31-0.25-0.78-0.38-1.41-0.38h-1.1V9.72z"/>
		</g>
		<g>
			<path class="st1" d="M201.34,5.33v1.37h-4.1v2.56h3.23v1.32h-3.23v2.61h4.1v1.37h-5.83V5.33H201.34z"/>
		</g>
		<g>
			<path class="st1" d="M215.71,5.33v1.41h-2.79v7.83h-1.72V6.74h-2.79V5.33H215.71z"/>
		</g>
		<g>
			<path class="st1" d="M225.62,9.95c0,0.68-0.11,1.3-0.34,1.88c-0.22,0.58-0.54,1.08-0.95,1.5c-0.41,0.42-0.9,0.75-1.48,0.99
				c-0.58,0.24-1.21,0.35-1.92,0.35c-0.7,0-1.34-0.12-1.91-0.35c-0.58-0.24-1.07-0.57-1.48-0.99c-0.41-0.42-0.73-0.92-0.96-1.5
				c-0.23-0.58-0.34-1.2-0.34-1.88c0-0.68,0.11-1.3,0.34-1.88c0.23-0.58,0.54-1.08,0.96-1.5c0.41-0.42,0.9-0.75,1.48-0.99
				c0.57-0.24,1.21-0.35,1.91-0.35c0.47,0,0.91,0.05,1.32,0.16c0.41,0.11,0.79,0.26,1.14,0.46c0.34,0.2,0.65,0.44,0.93,0.72
				c0.27,0.28,0.51,0.6,0.7,0.95c0.19,0.35,0.34,0.73,0.44,1.14S225.62,9.5,225.62,9.95z M223.86,9.95c0-0.51-0.07-0.96-0.2-1.36
				c-0.14-0.4-0.33-0.74-0.58-1.03c-0.25-0.28-0.56-0.5-0.92-0.65c-0.36-0.15-0.77-0.22-1.22-0.22c-0.45,0-0.86,0.07-1.22,0.22
				c-0.36,0.15-0.67,0.36-0.92,0.65c-0.25,0.28-0.45,0.62-0.58,1.03c-0.14,0.4-0.2,0.86-0.2,1.36c0,0.51,0.07,0.96,0.2,1.36
				c0.14,0.4,0.33,0.74,0.58,1.02s0.56,0.49,0.92,0.64c0.36,0.15,0.77,0.22,1.22,0.22c0.45,0,0.86-0.07,1.22-0.22
				c0.36-0.15,0.67-0.36,0.92-0.64s0.45-0.62,0.58-1.02C223.79,10.91,223.86,10.45,223.86,9.95z"/>
		</g>
		<g>
			<path class="st1" d="M231.04,13.18c0.33,0,0.63-0.06,0.89-0.17c0.26-0.11,0.48-0.27,0.66-0.47c0.18-0.2,0.32-0.44,0.41-0.73
				c0.1-0.29,0.14-0.6,0.14-0.96V5.33h1.72v5.53c0,0.55-0.09,1.06-0.27,1.52c-0.18,0.47-0.43,0.87-0.76,1.21
				c-0.33,0.34-0.73,0.6-1.2,0.79c-0.47,0.19-1.01,0.28-1.6,0.28c-0.6,0-1.13-0.09-1.6-0.28c-0.47-0.19-0.87-0.45-1.2-0.79
				c-0.33-0.34-0.58-0.74-0.76-1.21c-0.18-0.47-0.27-0.97-0.27-1.52V5.33h1.72v5.53c0,0.35,0.05,0.67,0.14,0.96
				c0.1,0.29,0.23,0.53,0.42,0.73c0.18,0.2,0.4,0.36,0.66,0.47C230.41,13.12,230.71,13.18,231.04,13.18z"/>
		</g>
		<g>
			<path class="st1" d="M238.72,10.96v3.61H237V5.33h2.82c0.63,0,1.16,0.07,1.61,0.19c0.45,0.13,0.82,0.31,1.11,0.55
				c0.29,0.23,0.5,0.51,0.64,0.84c0.14,0.33,0.2,0.68,0.2,1.08c0,0.31-0.05,0.6-0.14,0.88c-0.09,0.28-0.22,0.53-0.4,0.75
				c-0.17,0.23-0.39,0.42-0.64,0.59s-0.54,0.31-0.87,0.41c0.22,0.12,0.4,0.3,0.56,0.53l2.31,3.41h-1.55c-0.29,0-0.51-0.12-0.64-0.35
				l-1.94-2.96c-0.07-0.11-0.15-0.19-0.24-0.24c-0.09-0.05-0.22-0.07-0.39-0.07H238.72z M238.72,9.72h1.07
				c0.32,0,0.61-0.04,0.85-0.12c0.24-0.08,0.44-0.19,0.59-0.34c0.16-0.14,0.27-0.31,0.35-0.51c0.08-0.2,0.11-0.41,0.11-0.65
				c0-0.47-0.15-0.83-0.46-1.08c-0.31-0.25-0.78-0.38-1.41-0.38h-1.1V9.72z"/>
		</g>
		<g>
			<path class="st1" d="M247.13,14.57h-1.73V5.33h1.73V14.57z"/>
		</g>
		<g>
			<path class="st1" d="M254.31,7.01c-0.05,0.09-0.11,0.15-0.16,0.19c-0.06,0.04-0.13,0.06-0.21,0.06c-0.09,0-0.19-0.03-0.29-0.1
				c-0.1-0.07-0.23-0.14-0.37-0.22c-0.14-0.08-0.31-0.15-0.51-0.22c-0.19-0.07-0.42-0.1-0.69-0.1c-0.24,0-0.45,0.03-0.63,0.09
				c-0.18,0.06-0.33,0.14-0.45,0.24c-0.12,0.1-0.21,0.22-0.27,0.37c-0.06,0.14-0.09,0.3-0.09,0.47c0,0.22,0.06,0.4,0.18,0.54
				c0.12,0.15,0.28,0.27,0.48,0.37c0.2,0.1,0.43,0.19,0.68,0.27c0.26,0.08,0.52,0.17,0.79,0.26c0.27,0.09,0.53,0.2,0.79,0.32
				c0.26,0.12,0.48,0.27,0.68,0.46c0.2,0.19,0.36,0.41,0.48,0.68c0.12,0.27,0.18,0.59,0.18,0.98c0,0.42-0.07,0.81-0.21,1.17
				c-0.14,0.36-0.35,0.68-0.63,0.95c-0.27,0.27-0.61,0.48-1.01,0.64c-0.4,0.16-0.85,0.23-1.36,0.23c-0.29,0-0.58-0.03-0.87-0.09
				c-0.29-0.06-0.56-0.14-0.82-0.25c-0.26-0.11-0.51-0.23-0.74-0.38c-0.23-0.15-0.43-0.32-0.61-0.5l0.5-0.82
				c0.04-0.06,0.1-0.11,0.17-0.15c0.07-0.04,0.14-0.06,0.22-0.06c0.11,0,0.22,0.04,0.35,0.13c0.12,0.09,0.27,0.18,0.44,0.29
				c0.17,0.11,0.37,0.2,0.6,0.29c0.23,0.09,0.5,0.13,0.82,0.13c0.49,0,0.87-0.12,1.14-0.35c0.27-0.23,0.4-0.57,0.4-1
				c0-0.24-0.06-0.44-0.18-0.59c-0.12-0.15-0.28-0.28-0.48-0.39c-0.2-0.1-0.43-0.19-0.68-0.27c-0.26-0.07-0.52-0.15-0.78-0.24
				c-0.26-0.09-0.52-0.19-0.78-0.31c-0.26-0.12-0.48-0.27-0.68-0.47c-0.2-0.19-0.36-0.43-0.48-0.72c-0.12-0.29-0.18-0.64-0.18-1.06
				c0-0.34,0.07-0.66,0.2-0.98c0.13-0.32,0.33-0.6,0.58-0.85c0.26-0.25,0.57-0.45,0.95-0.59c0.38-0.15,0.81-0.22,1.29-0.22
				c0.54,0,1.05,0.09,1.51,0.26c0.46,0.17,0.85,0.41,1.18,0.72L254.31,7.01z"/>
		</g>
		<g>
			<path class="st1" d="M261.43,11.16c0.06,0.15,0.12,0.3,0.18,0.44c0.06-0.16,0.12-0.31,0.19-0.46c0.06-0.15,0.13-0.29,0.2-0.42
				l2.73-5.12c0.03-0.06,0.07-0.12,0.11-0.15c0.04-0.04,0.08-0.07,0.12-0.08c0.04-0.02,0.09-0.03,0.15-0.03
				c0.06,0,0.12-0.01,0.2-0.01h1.3v9.24h-1.51V8.6c0-0.11,0-0.23,0.01-0.36c0.01-0.13,0.02-0.27,0.03-0.4l-2.79,5.24
				c-0.13,0.25-0.33,0.38-0.61,0.38h-0.24c-0.27,0-0.47-0.13-0.61-0.38l-2.82-5.26c0.01,0.14,0.02,0.28,0.03,0.41
				c0.01,0.13,0.01,0.26,0.01,0.37v5.97h-1.51V5.33h1.3c0.08,0,0.14,0,0.2,0.01c0.06,0,0.11,0.01,0.15,0.03
				c0.04,0.02,0.08,0.04,0.12,0.08c0.04,0.04,0.07,0.09,0.11,0.15l2.77,5.13C261.3,10.87,261.37,11.01,261.43,11.16z"/>
		</g>
	</g>
	<g class="st0">
		<g>
			<path class="st1" d="M136.78,29.9h-1.33c-0.15,0-0.27-0.04-0.36-0.11c-0.09-0.07-0.16-0.17-0.21-0.28l-0.69-1.88h-3.83
				l-0.69,1.88c-0.03,0.1-0.1,0.19-0.2,0.27c-0.1,0.08-0.22,0.12-0.36,0.12h-1.34l3.64-9.24h1.75L136.78,29.9z M130.8,26.41h2.95
				l-1.12-3.07c-0.06-0.14-0.11-0.3-0.17-0.48c-0.06-0.19-0.12-0.39-0.18-0.6c-0.06,0.22-0.12,0.42-0.18,0.61
				c-0.06,0.19-0.11,0.35-0.17,0.49L130.8,26.41z"/>
		</g>
		<g>
			<path class="st1" d="M138.83,20.67c0.05,0.01,0.1,0.02,0.14,0.04c0.04,0.02,0.08,0.05,0.12,0.08c0.04,0.04,0.08,0.08,0.13,0.14
				l4.84,6.18c-0.01-0.15-0.02-0.3-0.03-0.44c-0.01-0.14-0.01-0.28-0.01-0.4v-5.62h1.51v9.24h-0.88c-0.14,0-0.25-0.02-0.34-0.07
				c-0.09-0.04-0.18-0.12-0.27-0.23l-4.82-6.15c0.01,0.14,0.02,0.27,0.03,0.41c0.01,0.13,0.01,0.26,0.01,0.37v5.67h-1.51v-9.24h0.9
				C138.71,20.66,138.77,20.66,138.83,20.67z"/>
		</g>
		<g>
			<path class="st1" d="M155.5,29.9h-1.33c-0.15,0-0.27-0.04-0.36-0.11c-0.09-0.07-0.16-0.17-0.21-0.28l-0.69-1.88h-3.83l-0.69,1.88
				c-0.03,0.1-0.1,0.19-0.2,0.27c-0.1,0.08-0.22,0.12-0.36,0.12h-1.34l3.64-9.24h1.75L155.5,29.9z M149.52,26.41h2.94l-1.12-3.07
				c-0.06-0.14-0.11-0.3-0.17-0.48c-0.06-0.19-0.12-0.39-0.18-0.6c-0.06,0.22-0.12,0.42-0.18,0.61c-0.06,0.19-0.11,0.35-0.17,0.49
				L149.52,26.41z"/>
		</g>
		<g>
			<path class="st1" d="M158.17,28.48h3.69v1.42h-5.41v-9.24h1.72V28.48z"/>
		</g>
		<g>
			<path class="st1" d="M165.85,26.32v3.58h-1.71v-3.58l-3.37-5.66h1.51c0.15,0,0.27,0.04,0.35,0.11c0.09,0.07,0.16,0.16,0.22,0.27
				l1.69,3.09c0.1,0.19,0.18,0.36,0.26,0.52c0.07,0.16,0.14,0.32,0.2,0.48c0.06-0.16,0.12-0.32,0.19-0.49
				c0.07-0.16,0.16-0.33,0.25-0.52l1.68-3.09c0.05-0.09,0.12-0.18,0.21-0.26c0.09-0.08,0.21-0.12,0.36-0.12h1.52L165.85,26.32z"/>
		</g>
		<g>
			<path class="st1" d="M176.61,20.66v1.41h-2.79v7.83h-1.72v-7.83h-2.79v-1.41H176.61z"/>
		</g>
		<g>
			<path class="st1" d="M179.55,29.9h-1.73v-9.24h1.73V29.9z"/>
		</g>
		<g>
			<path class="st1" d="M187.96,27.72c0.09,0,0.18,0.04,0.25,0.11l0.68,0.73c-0.37,0.46-0.84,0.82-1.38,1.07
				c-0.55,0.25-1.2,0.37-1.97,0.37c-0.69,0-1.3-0.12-1.85-0.35c-0.55-0.23-1.01-0.56-1.4-0.98s-0.68-0.92-0.89-1.5
				c-0.21-0.58-0.31-1.21-0.31-1.9c0-0.69,0.11-1.33,0.33-1.91c0.22-0.58,0.53-1.07,0.94-1.49c0.4-0.42,0.88-0.74,1.44-0.97
				c0.56-0.23,1.18-0.35,1.85-0.35c0.67,0,1.27,0.11,1.79,0.33c0.52,0.22,0.97,0.51,1.33,0.87l-0.58,0.8
				c-0.03,0.05-0.08,0.1-0.13,0.13c-0.05,0.04-0.13,0.06-0.22,0.06c-0.06,0-0.13-0.02-0.2-0.05c-0.07-0.04-0.14-0.08-0.22-0.13
				s-0.17-0.11-0.28-0.18c-0.11-0.06-0.23-0.12-0.37-0.18c-0.14-0.05-0.3-0.1-0.49-0.13c-0.19-0.04-0.4-0.05-0.64-0.05
				c-0.41,0-0.79,0.07-1.13,0.22c-0.34,0.15-0.64,0.36-0.88,0.64c-0.25,0.28-0.44,0.62-0.58,1.02c-0.14,0.4-0.2,0.86-0.2,1.38
				c0,0.52,0.07,0.98,0.22,1.39c0.15,0.4,0.35,0.75,0.6,1.02c0.25,0.28,0.55,0.49,0.89,0.64c0.34,0.15,0.71,0.22,1.1,0.22
				c0.23,0,0.45-0.01,0.64-0.04c0.19-0.03,0.36-0.07,0.52-0.12c0.16-0.06,0.31-0.13,0.45-0.21c0.14-0.09,0.28-0.19,0.42-0.32
				c0.04-0.04,0.09-0.07,0.13-0.09C187.86,27.73,187.91,27.72,187.96,27.72z"/>
		</g>
		<g>
			<path class="st1" d="M194.98,22.34c-0.05,0.09-0.11,0.15-0.16,0.19c-0.06,0.04-0.13,0.06-0.21,0.06c-0.09,0-0.19-0.03-0.29-0.1
				c-0.1-0.07-0.23-0.14-0.37-0.22c-0.14-0.08-0.31-0.15-0.51-0.22s-0.42-0.1-0.69-0.1c-0.24,0-0.45,0.03-0.63,0.09
				c-0.18,0.06-0.33,0.14-0.45,0.24c-0.12,0.1-0.21,0.22-0.27,0.37c-0.06,0.14-0.09,0.3-0.09,0.47c0,0.22,0.06,0.4,0.18,0.54
				c0.12,0.15,0.28,0.27,0.48,0.37c0.2,0.1,0.43,0.19,0.68,0.27c0.26,0.08,0.52,0.17,0.79,0.26c0.27,0.09,0.53,0.2,0.79,0.32
				c0.26,0.12,0.48,0.27,0.68,0.46c0.2,0.19,0.36,0.41,0.48,0.68s0.18,0.59,0.18,0.98c0,0.42-0.07,0.81-0.21,1.17
				c-0.14,0.36-0.35,0.68-0.63,0.95c-0.27,0.27-0.61,0.48-1.01,0.64c-0.4,0.16-0.85,0.23-1.36,0.23c-0.29,0-0.58-0.03-0.87-0.09
				c-0.29-0.06-0.56-0.14-0.82-0.25c-0.26-0.11-0.51-0.23-0.74-0.38s-0.43-0.32-0.61-0.5l0.5-0.82c0.04-0.06,0.1-0.11,0.17-0.15
				c0.07-0.04,0.14-0.06,0.22-0.06c0.11,0,0.22,0.04,0.35,0.13c0.12,0.09,0.27,0.18,0.44,0.29c0.17,0.11,0.37,0.2,0.6,0.29
				c0.23,0.09,0.5,0.13,0.82,0.13c0.49,0,0.87-0.12,1.14-0.35c0.27-0.23,0.4-0.57,0.4-1c0-0.24-0.06-0.44-0.18-0.59
				c-0.12-0.15-0.28-0.28-0.48-0.39c-0.2-0.1-0.43-0.19-0.68-0.27c-0.26-0.07-0.52-0.15-0.78-0.24c-0.26-0.09-0.52-0.19-0.78-0.31
				c-0.26-0.12-0.48-0.27-0.68-0.47c-0.2-0.19-0.36-0.43-0.48-0.72c-0.12-0.29-0.18-0.64-0.18-1.06c0-0.34,0.07-0.66,0.2-0.98
				c0.13-0.32,0.33-0.6,0.58-0.85c0.26-0.25,0.57-0.45,0.95-0.59c0.38-0.15,0.81-0.22,1.29-0.22c0.54,0,1.05,0.09,1.51,0.26
				c0.46,0.17,0.85,0.41,1.18,0.72L194.98,22.34z"/>
		</g>
		<g>
			<path class="st1" d="M204.37,20.67c0.05,0.01,0.1,0.02,0.14,0.04c0.04,0.02,0.08,0.05,0.12,0.08c0.04,0.04,0.08,0.08,0.13,0.14
				l4.84,6.18c-0.01-0.15-0.02-0.3-0.03-0.44c-0.01-0.14-0.01-0.28-0.01-0.4v-5.62h1.51v9.24h-0.88c-0.14,0-0.25-0.02-0.34-0.07
				c-0.09-0.04-0.18-0.12-0.27-0.23l-4.82-6.15c0.01,0.14,0.02,0.27,0.03,0.41c0.01,0.13,0.01,0.26,0.01,0.37v5.67h-1.51v-9.24h0.9
				C204.26,20.66,204.32,20.66,204.37,20.67z"/>
		</g>
		<g>
			<path class="st1" d="M218.95,20.66v1.37h-4.1v2.56h3.23v1.32h-3.23v2.61h4.1v1.37h-5.83v-9.24H218.95z"/>
		</g>
		<g>
			<path class="st1" d="M226.93,20.66v1.41h-2.79v7.83h-1.72v-7.83h-2.79v-1.41H226.93z"/>
		</g>
		<g>
			<path class="st1" d="M227.22,20.66h1.44c0.15,0,0.27,0.04,0.37,0.11c0.1,0.07,0.17,0.16,0.2,0.28l1.57,5.53
				c0.03,0.14,0.07,0.28,0.1,0.44c0.03,0.16,0.07,0.33,0.1,0.51c0.03-0.18,0.07-0.35,0.11-0.51c0.04-0.16,0.08-0.31,0.13-0.44
				l1.81-5.53c0.03-0.1,0.1-0.19,0.2-0.27c0.1-0.08,0.22-0.12,0.37-0.12h0.5c0.15,0,0.27,0.04,0.36,0.11
				c0.09,0.07,0.16,0.17,0.21,0.28l1.81,5.53c0.09,0.26,0.17,0.57,0.24,0.91c0.06-0.34,0.12-0.64,0.19-0.91l1.57-5.53
				c0.03-0.11,0.09-0.2,0.19-0.27c0.1-0.08,0.23-0.12,0.37-0.12h1.35l-2.87,9.24h-1.55l-2.02-6.31c-0.03-0.08-0.06-0.17-0.08-0.26
				c-0.03-0.09-0.05-0.19-0.08-0.29c-0.02,0.1-0.05,0.2-0.07,0.29c-0.03,0.09-0.05,0.18-0.08,0.26l-2.04,6.31h-1.56L227.22,20.66z"
				/>
		</g>
		<g>
			<path class="st1" d="M250.18,25.28c0,0.68-0.11,1.3-0.34,1.88c-0.22,0.58-0.54,1.08-0.95,1.5c-0.41,0.42-0.9,0.75-1.48,0.99
				c-0.58,0.24-1.21,0.35-1.92,0.35c-0.7,0-1.34-0.12-1.91-0.35c-0.58-0.24-1.07-0.57-1.48-0.99c-0.41-0.42-0.73-0.92-0.96-1.5
				c-0.23-0.58-0.34-1.2-0.34-1.88c0-0.68,0.11-1.3,0.34-1.88c0.23-0.58,0.54-1.08,0.96-1.5c0.41-0.42,0.9-0.75,1.48-0.99
				c0.57-0.24,1.21-0.35,1.91-0.35c0.47,0,0.91,0.05,1.32,0.16c0.41,0.11,0.79,0.26,1.14,0.46c0.34,0.2,0.65,0.44,0.93,0.72
				s0.51,0.6,0.7,0.95c0.19,0.35,0.34,0.73,0.44,1.14C250.13,24.4,250.18,24.83,250.18,25.28z M248.42,25.28
				c0-0.51-0.07-0.96-0.2-1.36c-0.14-0.4-0.33-0.74-0.58-1.03c-0.25-0.28-0.56-0.5-0.92-0.65c-0.36-0.15-0.77-0.22-1.22-0.22
				c-0.45,0-0.86,0.07-1.22,0.22c-0.36,0.15-0.67,0.36-0.92,0.65c-0.25,0.28-0.45,0.62-0.58,1.03c-0.14,0.4-0.2,0.86-0.2,1.36
				c0,0.51,0.07,0.96,0.2,1.36c0.14,0.4,0.33,0.74,0.58,1.02s0.56,0.49,0.92,0.64c0.36,0.15,0.77,0.22,1.22,0.22
				c0.45,0,0.86-0.07,1.22-0.22c0.36-0.15,0.67-0.36,0.92-0.64s0.45-0.62,0.58-1.02C248.36,26.24,248.42,25.79,248.42,25.28z"/>
		</g>
		<g>
			<path class="st1" d="M253.41,26.29v3.61h-1.72v-9.24h2.82c0.63,0,1.16,0.07,1.61,0.19c0.45,0.13,0.82,0.31,1.11,0.55
				c0.29,0.23,0.5,0.51,0.64,0.84c0.14,0.33,0.2,0.68,0.2,1.08c0,0.31-0.05,0.6-0.14,0.88c-0.09,0.28-0.22,0.53-0.4,0.75
				s-0.39,0.42-0.64,0.59s-0.54,0.31-0.87,0.41c0.22,0.12,0.4,0.3,0.56,0.53l2.31,3.41h-1.55c-0.29,0-0.51-0.12-0.64-0.35
				l-1.94-2.96c-0.07-0.11-0.15-0.19-0.24-0.24c-0.09-0.05-0.22-0.07-0.39-0.07H253.41z M253.41,25.06h1.07
				c0.32,0,0.61-0.04,0.85-0.12c0.24-0.08,0.44-0.19,0.59-0.34c0.16-0.14,0.27-0.31,0.35-0.51c0.08-0.2,0.11-0.41,0.11-0.65
				c0-0.47-0.15-0.83-0.46-1.08c-0.31-0.25-0.78-0.38-1.41-0.38h-1.1V25.06z"/>
		</g>
		<g>
			<path class="st1" d="M261.63,24.53h0.4c0.16,0,0.3-0.02,0.4-0.07c0.11-0.04,0.2-0.12,0.27-0.21l2.55-3.23
				c0.11-0.14,0.22-0.23,0.34-0.28c0.12-0.05,0.27-0.08,0.44-0.08h1.48l-3.11,3.84c-0.18,0.23-0.37,0.4-0.57,0.5
				c0.14,0.05,0.27,0.12,0.38,0.21c0.11,0.09,0.22,0.21,0.32,0.36l3.21,4.32h-1.51c-0.2,0-0.36-0.03-0.46-0.09
				c-0.1-0.06-0.18-0.14-0.25-0.25l-2.61-3.41c-0.08-0.11-0.17-0.2-0.28-0.24c-0.11-0.05-0.26-0.07-0.46-0.07h-0.54v4.06h-1.72
				v-9.24h1.72V24.53z"/>
		</g>
	</g>
	<g>
		<path class="st1" d="M21.78,12.2H7.64c-0.88,0-1.59-0.28-2.17-0.85C4.9,10.79,4.62,10.08,4.62,9.2V7.76
			c0-0.88,0.28-1.58,0.85-2.15c0.58-0.57,1.28-0.84,2.17-0.84h18.95V0.48H6.73c-1.85,0-3.45,0.66-4.76,1.96
			c-1.31,1.3-1.98,2.9-1.98,4.75v2.73c0,1.85,0.66,3.45,1.98,4.75c1.31,1.3,2.91,1.96,4.76,1.96h14.14c0.88,0,1.59,0.28,2.17,0.84
			c0.57,0.57,0.85,1.27,0.85,2.15v2.52c0,0.87-0.28,1.57-0.85,2.14c-0.58,0.58-1.28,0.85-2.16,0.85H0.97v4.28h20.81
			c1.85,0,3.45-0.66,4.76-1.96c1.31-1.3,1.98-2.9,1.98-4.75v-3.8c0-1.85-0.66-3.45-1.98-4.75C25.23,12.86,23.63,12.2,21.78,12.2z"/>
		<path class="st1" d="M49.45,9.08V4.65H38.39V0h-4.86l0,0.25c0.02,7.75,0.03,15.21,0.03,22.38c0,1.83,0.73,3.42,2.18,4.72
			c1.44,1.29,3.19,1.94,5.21,1.94h8.5v-4.4h-7.88c-0.91,0-1.64-0.31-2.25-0.95c-0.61-0.64-0.9-1.38-0.9-2.26V9.08H49.45z"/>
	</g>
	<path class="st1" d="M107.91,6.61c-1.43-1.3-3.18-1.96-5.2-1.96H92c-2.02,0-3.77,0.66-5.2,1.96c-1.44,1.31-2.16,2.9-2.16,4.73V29.3
		h4.86V12.26c0-0.92,0.33-1.67,1-2.27c0.67-0.6,1.52-0.91,2.53-0.91h8.62c1.01,0,1.86,0.31,2.53,0.91c0.67,0.6,1,1.35,1,2.27V29.3
		h4.89V11.34C110.07,9.51,109.34,7.91,107.91,6.61z"/>
	<polygon class="st2" points="70.02,4.34 54.58,19.78 54.58,29.05 73.11,10.52 73.11,22.87 66.93,22.87 66.93,29.05 79.28,29.05 
		79.28,4.34 	"/>
</g>
</svg>
